                        <svg xmlns="http://www.w3.org/2000/svg" width="50" height="50" viewBox="0 0 41 40" fill="none" class="i i--build-confidence-icon rounded-md" role="presentation" aria-hidden="true">
                        <g clip-path="url(#clip0_2038_17538)">
                            <path d="M40.5 0H0.5V40H40.5V0Z" fill="#7034D5"></path>
                            <path d="M33.2998 21C32.1998 19.1 28.8998 12.7 28.0998 7.90003C27.9998 7.20003 27.3998 6.70003 26.6998 6.80003C24.9998 7.00003 23.0998 6.70003 21.9998 6.30003C21.4998 6.10003 20.9998 6.30003 20.7998 6.80003C20.4998 7.40003 20.0998 8.20003 19.5998 8.80003C19.2998 9.20003 19.2998 9.70003 19.5998 10.1C19.8998 10.5 20.3998 11.4 20.3998 11.7C20.2998 12.1 20.2998 12.5 20.5998 12.9C20.8998 13.3 21.1998 13.4 21.5998 13.4C21.9998 13.4 22.4998 13.2 22.8998 13C23.1998 12.9 23.4998 12.7 23.6998 12.7C24.1998 12.7 24.5998 12.6 24.7998 12.5C24.8998 13.8 24.5998 15.1 24.1998 16.4C23.7998 17.9 23.2998 19.6 23.5998 21.5C21.4998 20.5 17.3998 20.8 15.8998 21.9C13.9998 20.4 11.3998 19.5 8.5998 19.4C8.3998 19.4 8.2998 19.5 8.2998 19.7C8.2998 19.9 8.3998 20 8.5998 20C12.2998 20.1 15.7998 21.8 17.3998 24.3C17.4998 24.4 17.5998 24.4 17.5998 24.4C17.6998 24.4 17.6998 24.4 17.7998 24.4C17.8998 24.3 17.9998 24.1 17.8998 24C17.4998 23.4 16.9998 22.8 16.3998 22.2C17.8998 21.2 22.2998 21 23.7998 22.2C23.8998 22.7 24.0998 23.3 24.3998 23.9C24.4998 24 24.5998 24.1 24.6998 24.1H24.7998C24.8998 24 24.9998 23.9 24.8998 23.7C23.5998 21 24.1998 18.8 24.7998 16.6C25.1998 15.1 25.5998 13.7 25.3998 12.2C25.6998 12 25.7998 11.7 25.8998 11.4C25.8998 11.3 25.9998 11.1 25.9998 11C26.0998 10.9 25.9998 10.7 25.8998 10.6C25.7998 10.5 25.5998 10.6 25.4998 10.7C25.3998 10.9 25.3998 11 25.2998 11.2C25.0998 11.7 24.9998 12.1 23.5998 12.2C23.2998 12.2 22.9998 12.4 22.5998 12.5C21.8998 12.8 21.3998 13 20.9998 12.5C20.7998 12.3 20.7998 12.1 20.8998 11.9C20.9998 11.5 21.5998 11.2 22.4998 11C22.9998 10.9 23.2998 10.6 23.3998 10.4C23.6998 9.80003 23.3998 9.00003 23.2998 8.90003C23.1998 8.80003 23.0998 8.70003 22.8998 8.80003C22.7998 8.90003 22.6998 9.00003 22.7998 9.20003C22.7998 9.30003 22.8998 9.50003 22.8998 9.80003C22.8998 9.80003 22.8998 9.80003 22.7998 9.80003C22.6998 9.80003 22.3998 9.90003 22.0998 9.80003C21.9998 9.70003 21.8998 9.60003 21.7998 9.50003C21.6998 9.30003 21.5998 9.30003 21.3998 9.30003C21.1998 9.40003 21.1998 9.50003 21.1998 9.70003C21.2998 10 21.4998 10.2 21.7998 10.4C21.9998 10.5 22.0998 10.5 22.2998 10.5C22.2998 10.5 22.2998 10.5 22.1998 10.5C21.4998 10.6 20.9998 10.9 20.5998 11.2C20.3998 10.7 20.0998 10.1 19.7998 9.80003C19.6998 9.60003 19.6998 9.40003 19.7998 9.20003C20.3998 8.50003 20.7998 7.70003 21.0998 7.10003C21.1998 6.90003 21.3998 6.80003 21.5998 6.90003C22.6998 7.30003 24.6998 7.60003 26.4998 7.40003C26.8998 7.40003 27.2998 7.60003 27.2998 8.00003C28.0998 12.9 31.3998 19.2 32.4998 21.3C33.0998 22.4 32.7998 23.8 32.3998 25.2C32.0998 26.4 31.7998 27.5 32.0998 28.5C32.2998 29.2 32.1998 29.9 31.7998 30.3C31.3998 30.7 30.7998 30.8 30.1998 30.7C29.6998 30.6 28.9998 30.5 28.3998 30.8C25.6998 32.5 16.3998 34.8 10.2998 30.3C10.1998 30.2 9.9998 30.2 9.8998 30.4C9.7998 30.5 9.7998 30.7 9.9998 30.8C10.5998 31.2 11.1998 31.6 11.7998 31.9C10.5998 32.4 8.6998 32.6 7.1998 32.2C6.9998 32.2 6.8998 32.2 6.7998 32.4C6.7998 32.6 6.7998 32.7 6.9998 32.8C7.5998 33 8.2998 33.1 8.9998 33.1C10.2998 33.1 11.5998 32.8 12.3998 32.3C14.5998 33.3 16.8998 33.6 19.0998 33.6C23.4998 33.6 27.3998 32.2 28.5998 31.4C28.9998 31.2 29.4998 31.3 29.8998 31.4C30.6998 31.6 31.4998 31.4 31.9998 30.8C32.5998 30.2 32.6998 29.4 32.4998 28.4C32.2998 27.6 32.4998 26.6 32.7998 25.4C33.5998 23.9 33.9998 22.3 33.2998 21Z" fill="white"></path>
                            <path d="M24.5999 29.5001C24.6999 29.4001 24.6999 29.2001 24.5999 29.1001C24.4999 29.0001 24.2999 29.0001 24.1999 29.1001C22.1999 30.7001 17.7999 30.5001 15.9999 29.1001C15.8999 29.0001 15.6999 29.0001 15.5999 29.2001C15.4999 29.3001 15.4999 29.5001 15.6999 29.6001C16.7999 30.5001 18.8999 30.9001 20.7999 30.8001C22.1999 30.6001 23.5999 30.3001 24.5999 29.5001Z" fill="white"></path>
                            <path d="M31.0002 24.8001H31.1002C31.2002 24.8001 31.3002 24.7001 31.4002 24.6001C31.9002 23.7001 31.9002 22.0001 31.3002 21.0001C31.2002 20.9001 31.0002 20.8001 30.9002 20.9001C30.8002 21.0001 30.7002 21.2001 30.8002 21.3001C31.3002 22.2001 31.3002 23.6001 30.9002 24.4001C30.8002 24.6001 30.8002 24.7001 31.0002 24.8001Z" fill="white"></path>
                            <path d="M33.2998 21C32.1998 19.1 28.8998 12.7 28.0998 7.90003C27.9998 7.20003 27.3998 6.70003 26.6998 6.80003C24.9998 7.00003 23.0998 6.70003 21.9998 6.30003C21.4998 6.10003 20.9998 6.30003 20.7998 6.80003C20.4998 7.40003 20.0998 8.20003 19.5998 8.80003C19.2998 9.20003 19.2998 9.70003 19.5998 10.1C19.8998 10.5 20.3998 11.4 20.3998 11.7C20.2998 12.1 20.2998 12.5 20.5998 12.9C20.8998 13.3 21.1998 13.4 21.5998 13.4C21.9998 13.4 22.4998 13.2 22.8998 13C23.1998 12.9 23.4998 12.7 23.6998 12.7C24.1998 12.7 24.5998 12.6 24.7998 12.5C24.8998 13.8 24.5998 15.1 24.1998 16.4C23.7998 17.9 23.2998 19.6 23.5998 21.5C21.4998 20.5 17.3998 20.8 15.8998 21.9C13.9998 20.4 11.3998 19.5 8.5998 19.4C8.3998 19.4 8.2998 19.5 8.2998 19.7C8.2998 19.9 8.3998 20 8.5998 20C12.2998 20.1 15.7998 21.8 17.3998 24.3C17.4998 24.4 17.5998 24.4 17.5998 24.4C17.6998 24.4 17.6998 24.4 17.7998 24.4C17.8998 24.3 17.9998 24.1 17.8998 24C17.4998 23.4 16.9998 22.8 16.3998 22.2C17.8998 21.2 22.2998 21 23.7998 22.2C23.8998 22.7 24.0998 23.3 24.3998 23.9C24.4998 24 24.5998 24.1 24.6998 24.1H24.7998C24.8998 24 24.9998 23.9 24.8998 23.7C23.5998 21 24.1998 18.8 24.7998 16.6C25.1998 15.1 25.5998 13.7 25.3998 12.2C25.6998 12 25.7998 11.7 25.8998 11.4C25.8998 11.3 25.9998 11.1 25.9998 11C26.0998 10.9 25.9998 10.7 25.8998 10.6C25.7998 10.5 25.5998 10.6 25.4998 10.7C25.3998 10.9 25.3998 11 25.2998 11.2C25.0998 11.7 24.9998 12.1 23.5998 12.2C23.2998 12.2 22.9998 12.4 22.5998 12.5C21.8998 12.8 21.3998 13 20.9998 12.5C20.7998 12.3 20.7998 12.1 20.8998 11.9C20.9998 11.5 21.5998 11.2 22.4998 11C22.9998 10.9 23.2998 10.6 23.3998 10.4C23.6998 9.80003 23.3998 9.00003 23.2998 8.90003C23.1998 8.80003 23.0998 8.70003 22.8998 8.80003C22.7998 8.90003 22.6998 9.00003 22.7998 9.20003C22.7998 9.30003 22.8998 9.50003 22.8998 9.80003C22.8998 9.80003 22.8998 9.80003 22.7998 9.80003C22.6998 9.80003 22.3998 9.90003 22.0998 9.80003C21.9998 9.70003 21.8998 9.60003 21.7998 9.50003C21.6998 9.30003 21.5998 9.30003 21.3998 9.30003C21.1998 9.40003 21.1998 9.50003 21.1998 9.70003C21.2998 10 21.4998 10.2 21.7998 10.4C21.9998 10.5 22.0998 10.5 22.2998 10.5C22.2998 10.5 22.2998 10.5 22.1998 10.5C21.4998 10.6 20.9998 10.9 20.5998 11.2C20.3998 10.7 20.0998 10.1 19.7998 9.80003C19.6998 9.60003 19.6998 9.40003 19.7998 9.20003C20.3998 8.50003 20.7998 7.70003 21.0998 7.10003C21.1998 6.90003 21.3998 6.80003 21.5998 6.90003C22.6998 7.30003 24.6998 7.60003 26.4998 7.40003C26.8998 7.40003 27.2998 7.60003 27.2998 8.00003C28.0998 12.9 31.3998 19.2 32.4998 21.3C33.0998 22.4 32.7998 23.8 32.3998 25.2C32.0998 26.4 31.7998 27.5 32.0998 28.5C32.2998 29.2 32.1998 29.9 31.7998 30.3C31.3998 30.7 30.7998 30.8 30.1998 30.7C29.6998 30.6 28.9998 30.5 28.3998 30.8C25.6998 32.5 16.3998 34.8 10.2998 30.3C10.1998 30.2 9.9998 30.2 9.8998 30.4C9.7998 30.5 9.7998 30.7 9.9998 30.8C10.5998 31.2 11.1998 31.6 11.7998 31.9C10.5998 32.4 8.6998 32.6 7.1998 32.2C6.9998 32.2 6.8998 32.2 6.7998 32.4C6.7998 32.6 6.7998 32.7 6.9998 32.8C7.5998 33 8.2998 33.1 8.9998 33.1C10.2998 33.1 11.5998 32.8 12.3998 32.3C14.5998 33.3 16.8998 33.6 19.0998 33.6C23.4998 33.6 27.3998 32.2 28.5998 31.4C28.9998 31.2 29.4998 31.3 29.8998 31.4C30.6998 31.6 31.4998 31.4 31.9998 30.8C32.5998 30.2 32.6998 29.4 32.4998 28.4C32.2998 27.6 32.4998 26.6 32.7998 25.4C33.5998 23.9 33.9998 22.3 33.2998 21Z" fill="white" stroke="white" stroke-width="0.5"></path>
                            <path d="M24.5999 29.5001C24.6999 29.4001 24.6999 29.2001 24.5999 29.1001C24.4999 29.0001 24.2999 29.0001 24.1999 29.1001C22.1999 30.7001 17.7999 30.5001 15.9999 29.1001C15.8999 29.0001 15.6999 29.0001 15.5999 29.2001C15.4999 29.3001 15.4999 29.5001 15.6999 29.6001C16.7999 30.5001 18.8999 30.9001 20.7999 30.8001C22.1999 30.6001 23.5999 30.3001 24.5999 29.5001Z" fill="white" stroke="white" stroke-width="0.5"></path>
                            <path d="M31.0002 24.8001H31.1002C31.2002 24.8001 31.3002 24.7001 31.4002 24.6001C31.9002 23.7001 31.9002 22.0001 31.3002 21.0001C31.2002 20.9001 31.0002 20.8001 30.9002 20.9001C30.8002 21.0001 30.7002 21.2001 30.8002 21.3001C31.3002 22.2001 31.3002 23.6001 30.9002 24.4001C30.8002 24.6001 30.8002 24.7001 31.0002 24.8001Z" fill="white" stroke="white" stroke-width="0.5"></path>
            </g>
            <defs>
                <clipPath id="clip0_2038_17538">
                <rect x="0.5" width="40" height="40" rx="6" fill="white"></rect>
                </clipPath>
                </defs>
                </svg>
