                                <svg xmlns="http://www.w3.org/2000/svg" width="1000" height="1000" viewBox="0 0 404 405" fill="currentColor" class="" role="presentation" aria-hidden="true">
                                    <path d="M0 0.199219H4V4.19922H0V0.199219Z" fill="currentColor"></path><path d="M20 0.199219H24V4.19922H20V0.199219Z" fill="currentColor"></path><path d="M40 0.199219H44V4.19922H40V0.199219Z" fill="currentColor"></path>
                                    <path d="M60 0.199219H64V4.19922H60V0.199219Z" fill="currentColor"></path><path d="M80 0.199219H84V4.19922H80V0.199219Z" fill="currentColor"></path><path d="M100 0.199219H104V4.19922H100V0.199219Z" fill="currentColor"></path><path d="M120 0.199219H124V4.19922H120V0.199219Z" fill="currentColor"></path><path d="M140 0.199219H144V4.19922H140V0.199219Z" fill="currentColor"></path>
                                    <path d="M160 0.199219H164V4.19922H160V0.199219Z" fill="currentColor"></path><path d="M180 0.199219H184V4.19922H180V0.199219Z" fill="currentColor"></path><path d="M200 0.199219H204V4.19922H200V0.199219Z" fill="currentColor"></path><path d="M220 0.199219H224V4.19922H220V0.199219Z" fill="currentColor"></path><path d="M240 0.199219H244V4.19922H240V0.199219Z" fill="currentColor"></path><path d="M260 0.199219H264V4.19922H260V0.199219Z" fill="currentColor"></path><path d="M280 0.199219H284V4.19922H280V0.199219Z" fill="currentColor"></path><path d="M300 0.199219H304V4.19922H300V0.199219Z" fill="currentColor"></path><path d="M320 0.199219H324V4.19922H320V0.199219Z" fill="currentColor"></path><path d="M340 0.199219H344V4.19922H340V0.199219Z" fill="currentColor"></path><path d="M360 0.199219H364V4.19922H360V0.199219Z" fill="currentColor"></path><path d="M380 0.199219H384V4.19922H380V0.199219Z" fill="currentColor"></path><path d="M400 0.199219H404V4.19922H400V0.199219Z" fill="currentColor"></path><path d="M0 20.1992H4V24.1992H0V20.1992Z" fill="currentColor"></path><path d="M20 20.1992H24V24.1992H20V20.1992Z" fill="currentColor"></path><path d="M40 20.1992H44V24.1992H40V20.1992Z" fill="currentColor"></path><path d="M60 20.1992H64V24.1992H60V20.1992Z" fill="currentColor"></path><path d="M80 20.1992H84V24.1992H80V20.1992Z" fill="currentColor"></path><path d="M100 20.1992H104V24.1992H100V20.1992Z" fill="currentColor"></path><path d="M120 20.1992H124V24.1992H120V20.1992Z" fill="currentColor"></path><path d="M140 20.1992H144V24.1992H140V20.1992Z" fill="currentColor"></path><path d="M160 20.1992H164V24.1992H160V20.1992Z" fill="currentColor"></path><path d="M180 20.1992H184V24.1992H180V20.1992Z" fill="currentColor"></path><path d="M200 20.1992H204V24.1992H200V20.1992Z" fill="currentColor"></path><path d="M220 20.1992H224V24.1992H220V20.1992Z" fill="currentColor"></path><path d="M240 20.1992H244V24.1992H240V20.1992Z" fill="currentColor"></path><path d="M260 20.1992H264V24.1992H260V20.1992Z" fill="currentColor"></path><path d="M280 20.1992H284V24.1992H280V20.1992Z" fill="currentColor"></path><path d="M300 20.1992H304V24.1992H300V20.1992Z" fill="currentColor"></path><path d="M320 20.1992H324V24.1992H320V20.1992Z" fill="currentColor"></path><path d="M340 20.1992H344V24.1992H340V20.1992Z" fill="currentColor"></path><path d="M360 20.1992H364V24.1992H360V20.1992Z" fill="currentColor"></path><path d="M380 20.1992H384V24.1992H380V20.1992Z" fill="currentColor"></path><path d="M400 20.1992H404V24.1992H400V20.1992Z" fill="currentColor"></path><path d="M0 40.1992H4V44.1992H0V40.1992Z" fill="currentColor"></path><path d="M20 40.1992H24V44.1992H20V40.1992Z" fill="currentColor"></path><path d="M40 40.1992H44V44.1992H40V40.1992Z" fill="currentColor"></path><path d="M60 40.1992H64V44.1992H60V40.1992Z" fill="currentColor"></path><path d="M80 40.1992H84V44.1992H80V40.1992Z" fill="currentColor"></path><path d="M100 40.1992H104V44.1992H100V40.1992Z" fill="currentColor"></path><path d="M120 40.1992H124V44.1992H120V40.1992Z" fill="currentColor"></path><path d="M140 40.1992H144V44.1992H140V40.1992Z" fill="currentColor"></path><path d="M160 40.1992H164V44.1992H160V40.1992Z" fill="currentColor"></path><path d="M180 40.1992H184V44.1992H180V40.1992Z" fill="currentColor"></path><path d="M200 40.1992H204V44.1992H200V40.1992Z" fill="currentColor"></path><path d="M220 40.1992H224V44.1992H220V40.1992Z" fill="currentColor"></path><path d="M240 40.1992H244V44.1992H240V40.1992Z" fill="currentColor"></path><path d="M260 40.1992H264V44.1992H260V40.1992Z" fill="currentColor"></path><path d="M280 40.1992H284V44.1992H280V40.1992Z" fill="currentColor"></path><path d="M300 40.1992H304V44.1992H300V40.1992Z" fill="currentColor"></path><path d="M320 40.1992H324V44.1992H320V40.1992Z" fill="currentColor"></path><path d="M340 40.1992H344V44.1992H340V40.1992Z" fill="currentColor"></path><path d="M360 40.1992H364V44.1992H360V40.1992Z" fill="currentColor"></path><path d="M380 40.1992H384V44.1992H380V40.1992Z" fill="currentColor"></path><path d="M400 40.1992H404V44.1992H400V40.1992Z" fill="currentColor"></path><path d="M0 60.1992H4V64.1992H0V60.1992Z" fill="currentColor"></path><path d="M20 60.1992H24V64.1992H20V60.1992Z" fill="currentColor"></path><path d="M40 60.1992H44V64.1992H40V60.1992Z" fill="currentColor"></path><path d="M60 60.1992H64V64.1992H60V60.1992Z" fill="currentColor"></path><path d="M80 60.1992H84V64.1992H80V60.1992Z" fill="currentColor"></path><path d="M100 60.1992H104V64.1992H100V60.1992Z" fill="currentColor"></path><path d="M120 60.1992H124V64.1992H120V60.1992Z" fill="currentColor"></path><path d="M140 60.1992H144V64.1992H140V60.1992Z" fill="currentColor"></path><path d="M160 60.1992H164V64.1992H160V60.1992Z" fill="currentColor"></path><path d="M180 60.1992H184V64.1992H180V60.1992Z" fill="currentColor"></path><path d="M200 60.1992H204V64.1992H200V60.1992Z" fill="currentColor"></path><path d="M220 60.1992H224V64.1992H220V60.1992Z" fill="currentColor"></path><path d="M240 60.1992H244V64.1992H240V60.1992Z" fill="currentColor"></path><path d="M260 60.1992H264V64.1992H260V60.1992Z" fill="currentColor"></path><path d="M280 60.1992H284V64.1992H280V60.1992Z" fill="currentColor"></path><path d="M300 60.1992H304V64.1992H300V60.1992Z" fill="currentColor"></path><path d="M320 60.1992H324V64.1992H320V60.1992Z" fill="currentColor"></path><path d="M340 60.1992H344V64.1992H340V60.1992Z" fill="currentColor"></path><path d="M360 60.1992H364V64.1992H360V60.1992Z" fill="currentColor"></path><path d="M380 60.1992H384V64.1992H380V60.1992Z" fill="currentColor"></path><path d="M400 60.1992H404V64.1992H400V60.1992Z" fill="currentColor"></path><path d="M0 80.1992H4V84.1992H0V80.1992Z" fill="currentColor"></path><path d="M20 80.1992H24V84.1992H20V80.1992Z" fill="currentColor"></path><path d="M40 80.1992H44V84.1992H40V80.1992Z" fill="currentColor"></path><path d="M60 80.1992H64V84.1992H60V80.1992Z" fill="currentColor"></path><path d="M80 80.1992H84V84.1992H80V80.1992Z" fill="currentColor"></path><path d="M100 80.1992H104V84.1992H100V80.1992Z" fill="currentColor"></path><path d="M120 80.1992H124V84.1992H120V80.1992Z" fill="currentColor"></path><path d="M140 80.1992H144V84.1992H140V80.1992Z" fill="currentColor"></path><path d="M160 80.1992H164V84.1992H160V80.1992Z" fill="currentColor"></path><path d="M180 80.1992H184V84.1992H180V80.1992Z" fill="currentColor"></path><path d="M200 80.1992H204V84.1992H200V80.1992Z" fill="currentColor"></path><path d="M220 80.1992H224V84.1992H220V80.1992Z" fill="currentColor"></path><path d="M240 80.1992H244V84.1992H240V80.1992Z" fill="currentColor"></path><path d="M260 80.1992H264V84.1992H260V80.1992Z" fill="currentColor"></path><path d="M280 80.1992H284V84.1992H280V80.1992Z" fill="currentColor"></path><path d="M300 80.1992H304V84.1992H300V80.1992Z" fill="currentColor"></path><path d="M320 80.1992H324V84.1992H320V80.1992Z" fill="currentColor"></path><path d="M340 80.1992H344V84.1992H340V80.1992Z" fill="currentColor"></path><path d="M360 80.1992H364V84.1992H360V80.1992Z" fill="currentColor"></path><path d="M380 80.1992H384V84.1992H380V80.1992Z" fill="currentColor"></path><path d="M400 80.1992H404V84.1992H400V80.1992Z" fill="currentColor"></path><path d="M0 100.199H4V104.199H0V100.199Z" fill="currentColor"></path><path d="M20 100.199H24V104.199H20V100.199Z" fill="currentColor"></path><path d="M40 100.199H44V104.199H40V100.199Z" fill="currentColor"></path><path d="M60 100.199H64V104.199H60V100.199Z" fill="currentColor"></path><path d="M80 100.199H84V104.199H80V100.199Z" fill="currentColor"></path><path d="M100 100.199H104V104.199H100V100.199Z" fill="currentColor"></path><path d="M120 100.199H124V104.199H120V100.199Z" fill="currentColor"></path>
                                    <path d="M140 100.199H144V104.199H140V100.199Z" fill="currentColor"></path><path d="M160 100.199H164V104.199H160V100.199Z" fill="currentColor"></path><path d="M180 100.199H184V104.199H180V100.199Z" fill="currentColor"></path><path d="M200 100.199H204V104.199H200V100.199Z" fill="currentColor"></path><path d="M220 100.199H224V104.199H220V100.199Z" fill="currentColor"></path><path d="M240 100.199H244V104.199H240V100.199Z" fill="currentColor"></path><path d="M260 100.199H264V104.199H260V100.199Z" fill="currentColor"></path><path d="M280 100.199H284V104.199H280V100.199Z" fill="currentColor"></path><path d="M300 100.199H304V104.199H300V100.199Z" fill="currentColor"></path><path d="M320 100.199H324V104.199H320V100.199Z" fill="currentColor"></path><path d="M340 100.199H344V104.199H340V100.199Z" fill="currentColor"></path><path d="M360 100.199H364V104.199H360V100.199Z" fill="currentColor"></path><path d="M380 100.199H384V104.199H380V100.199Z" fill="currentColor"></path><path d="M400 100.199H404V104.199H400V100.199Z" fill="currentColor"></path><path d="M0 120.199H4V124.199H0V120.199Z" fill="currentColor"></path><path d="M20 120.199H24V124.199H20V120.199Z" fill="currentColor"></path><path d="M40 120.199H44V124.199H40V120.199Z" fill="currentColor"></path><path d="M60 120.199H64V124.199H60V120.199Z" fill="currentColor"></path><path d="M80 120.199H84V124.199H80V120.199Z" fill="currentColor"></path><path d="M100 120.199H104V124.199H100V120.199Z" fill="currentColor"></path><path d="M120 120.199H124V124.199H120V120.199Z" fill="currentColor"></path><path d="M140 120.199H144V124.199H140V120.199Z" fill="currentColor"></path><path d="M160 120.199H164V124.199H160V120.199Z" fill="currentColor"></path><path d="M180 120.199H184V124.199H180V120.199Z" fill="currentColor"></path><path d="M200 120.199H204V124.199H200V120.199Z" fill="currentColor"></path><path d="M220 120.199H224V124.199H220V120.199Z" fill="currentColor"></path><path d="M240 120.199H244V124.199H240V120.199Z" fill="currentColor"></path><path d="M260 120.199H264V124.199H260V120.199Z" fill="currentColor"></path><path d="M280 120.199H284V124.199H280V120.199Z" fill="currentColor"></path><path d="M300 120.199H304V124.199H300V120.199Z" fill="currentColor"></path><path d="M320 120.199H324V124.199H320V120.199Z" fill="currentColor"></path><path d="M340 120.199H344V124.199H340V120.199Z" fill="currentColor"></path><path d="M360 120.199H364V124.199H360V120.199Z" fill="currentColor"></path><path d="M380 120.199H384V124.199H380V120.199Z" fill="currentColor"></path><path d="M400 120.199H404V124.199H400V120.199Z" fill="currentColor"></path><path d="M0 140.199H4V144.199H0V140.199Z" fill="currentColor"></path><path d="M20 140.199H24V144.199H20V140.199Z" fill="currentColor"></path><path d="M40 140.199H44V144.199H40V140.199Z" fill="currentColor"></path><path d="M60 140.199H64V144.199H60V140.199Z" fill="currentColor"></path><path d="M80 140.199H84V144.199H80V140.199Z" fill="currentColor"></path><path d="M100 140.199H104V144.199H100V140.199Z" fill="currentColor"></path><path d="M120 140.199H124V144.199H120V140.199Z" fill="currentColor"></path><path d="M140 140.199H144V144.199H140V140.199Z" fill="currentColor"></path><path d="M160 140.199H164V144.199H160V140.199Z" fill="currentColor"></path><path d="M180 140.199H184V144.199H180V140.199Z" fill="currentColor"></path><path d="M200 140.199H204V144.199H200V140.199Z" fill="currentColor"></path><path d="M220 140.199H224V144.199H220V140.199Z" fill="currentColor"></path><path d="M240 140.199H244V144.199H240V140.199Z" fill="currentColor"></path><path d="M260 140.199H264V144.199H260V140.199Z" fill="currentColor"></path><path d="M280 140.199H284V144.199H280V140.199Z" fill="currentColor"></path><path d="M300 140.199H304V144.199H300V140.199Z" fill="currentColor"></path><path d="M320 140.199H324V144.199H320V140.199Z" fill="currentColor"></path><path d="M340 140.199H344V144.199H340V140.199Z" fill="currentColor"></path><path d="M360 140.199H364V144.199H360V140.199Z" fill="currentColor"></path><path d="M380 140.199H384V144.199H380V140.199Z" fill="currentColor"></path><path d="M400 140.199H404V144.199H400V140.199Z" fill="currentColor"></path><path d="M0 160.199H4V164.199H0V160.199Z" fill="currentColor"></path><path d="M20 160.199H24V164.199H20V160.199Z" fill="currentColor"></path><path d="M40 160.199H44V164.199H40V160.199Z" fill="currentColor"></path><path d="M60 160.199H64V164.199H60V160.199Z" fill="currentColor"></path><path d="M80 160.199H84V164.199H80V160.199Z" fill="currentColor"></path><path d="M100 160.199H104V164.199H100V160.199Z" fill="currentColor"></path><path d="M120 160.199H124V164.199H120V160.199Z" fill="currentColor"></path><path d="M140 160.199H144V164.199H140V160.199Z" fill="currentColor"></path><path d="M160 160.199H164V164.199H160V160.199Z" fill="currentColor"></path><path d="M180 160.199H184V164.199H180V160.199Z" fill="currentColor"></path><path d="M200 160.199H204V164.199H200V160.199Z" fill="currentColor"></path><path d="M220 160.199H224V164.199H220V160.199Z" fill="currentColor"></path><path d="M240 160.199H244V164.199H240V160.199Z" fill="currentColor"></path><path d="M260 160.199H264V164.199H260V160.199Z" fill="currentColor"></path><path d="M280 160.199H284V164.199H280V160.199Z" fill="currentColor"></path><path d="M300 160.199H304V164.199H300V160.199Z" fill="currentColor"></path><path d="M320 160.199H324V164.199H320V160.199Z" fill="currentColor"></path><path d="M340 160.199H344V164.199H340V160.199Z" fill="currentColor"></path><path d="M360 160.199H364V164.199H360V160.199Z" fill="currentColor"></path><path d="M380 160.199H384V164.199H380V160.199Z" fill="currentColor"></path><path d="M400 160.199H404V164.199H400V160.199Z" fill="currentColor"></path><path d="M0 180.199H4V184.199H0V180.199Z" fill="currentColor"></path><path d="M20 180.199H24V184.199H20V180.199Z" fill="currentColor"></path><path d="M40 180.199H44V184.199H40V180.199Z" fill="currentColor"></path><path d="M60 180.199H64V184.199H60V180.199Z" fill="currentColor"></path><path d="M80 180.199H84V184.199H80V180.199Z" fill="currentColor"></path><path d="M100 180.199H104V184.199H100V180.199Z" fill="currentColor"></path><path d="M120 180.199H124V184.199H120V180.199Z" fill="currentColor"></path><path d="M140 180.199H144V184.199H140V180.199Z" fill="currentColor"></path><path d="M160 180.199H164V184.199H160V180.199Z" fill="currentColor"></path><path d="M180 180.199H184V184.199H180V180.199Z" fill="currentColor"></path><path d="M200 180.199H204V184.199H200V180.199Z" fill="currentColor"></path><path d="M220 180.199H224V184.199H220V180.199Z" fill="currentColor"></path><path d="M240 180.199H244V184.199H240V180.199Z" fill="currentColor"></path><path d="M260 180.199H264V184.199H260V180.199Z" fill="currentColor"></path><path d="M280 180.199H284V184.199H280V180.199Z" fill="currentColor"></path><path d="M300 180.199H304V184.199H300V180.199Z" fill="currentColor"></path><path d="M320 180.199H324V184.199H320V180.199Z" fill="currentColor"></path><path d="M340 180.199H344V184.199H340V180.199Z" fill="currentColor"></path><path d="M360 180.199H364V184.199H360V180.199Z" fill="currentColor"></path><path d="M380 180.199H384V184.199H380V180.199Z" fill="currentColor"></path><path d="M400 180.199H404V184.199H400V180.199Z" fill="currentColor"></path><path d="M0 200.199H4V204.199H0V200.199Z" fill="currentColor"></path><path d="M20 200.199H24V204.199H20V200.199Z" fill="currentColor"></path><path d="M40 200.199H44V204.199H40V200.199Z" fill="currentColor"></path><path d="M60 200.199H64V204.199H60V200.199Z" fill="currentColor"></path><path d="M80 200.199H84V204.199H80V200.199Z" fill="currentColor"></path><path d="M100 200.199H104V204.199H100V200.199Z" fill="currentColor"></path><path d="M120 200.199H124V204.199H120V200.199Z" fill="currentColor"></path><path d="M140 200.199H144V204.199H140V200.199Z" fill="currentColor"></path><path d="M160 200.199H164V204.199H160V200.199Z" fill="currentColor"></path><path d="M180 200.199H184V204.199H180V200.199Z" fill="currentColor"></path><path d="M200 200.199H204V204.199H200V200.199Z" fill="currentColor"></path><path d="M220 200.199H224V204.199H220V200.199Z" fill="currentColor"></path><path d="M240 200.199H244V204.199H240V200.199Z" fill="currentColor"></path><path d="M260 200.199H264V204.199H260V200.199Z" fill="currentColor"></path><path d="M280 200.199H284V204.199H280V200.199Z" fill="currentColor"></path><path d="M300 200.199H304V204.199H300V200.199Z" fill="currentColor"></path><path d="M320 200.199H324V204.199H320V200.199Z" fill="currentColor"></path><path d="M340 200.199H344V204.199H340V200.199Z" fill="currentColor"></path>
                                    <path d="M360 200.199H364V204.199H360V200.199Z" fill="currentColor"></path><path d="M380 200.199H384V204.199H380V200.199Z" fill="currentColor"></path><path d="M400 200.199H404V204.199H400V200.199Z" fill="currentColor"></path><path d="M0 220.199H4V224.199H0V220.199Z" fill="currentColor"></path><path d="M20 220.199H24V224.199H20V220.199Z" fill="currentColor"></path><path d="M40 220.199H44V224.199H40V220.199Z" fill="currentColor"></path><path d="M60 220.199H64V224.199H60V220.199Z" fill="currentColor"></path><path d="M80 220.199H84V224.199H80V220.199Z" fill="currentColor"></path><path d="M100 220.199H104V224.199H100V220.199Z" fill="currentColor"></path><path d="M120 220.199H124V224.199H120V220.199Z" fill="currentColor"></path><path d="M140 220.199H144V224.199H140V220.199Z" fill="currentColor"></path><path d="M160 220.199H164V224.199H160V220.199Z" fill="currentColor"></path><path d="M180 220.199H184V224.199H180V220.199Z" fill="currentColor"></path><path d="M200 220.199H204V224.199H200V220.199Z" fill="currentColor"></path><path d="M220 220.199H224V224.199H220V220.199Z" fill="currentColor"></path><path d="M240 220.199H244V224.199H240V220.199Z" fill="currentColor"></path><path d="M260 220.199H264V224.199H260V220.199Z" fill="currentColor"></path><path d="M280 220.199H284V224.199H280V220.199Z" fill="currentColor"></path><path d="M300 220.199H304V224.199H300V220.199Z" fill="currentColor"></path><path d="M320 220.199H324V224.199H320V220.199Z" fill="currentColor"></path><path d="M340 220.199H344V224.199H340V220.199Z" fill="currentColor"></path><path d="M360 220.199H364V224.199H360V220.199Z" fill="currentColor"></path><path d="M380 220.199H384V224.199H380V220.199Z" fill="currentColor"></path><path d="M400 220.199H404V224.199H400V220.199Z" fill="currentColor"></path><path d="M0 240.199H4V244.199H0V240.199Z" fill="currentColor"></path><path d="M20 240.199H24V244.199H20V240.199Z" fill="currentColor"></path><path d="M40 240.199H44V244.199H40V240.199Z" fill="currentColor"></path><path d="M60 240.199H64V244.199H60V240.199Z" fill="currentColor"></path><path d="M80 240.199H84V244.199H80V240.199Z" fill="currentColor"></path><path d="M100 240.199H104V244.199H100V240.199Z" fill="currentColor"></path><path d="M120 240.199H124V244.199H120V240.199Z" fill="currentColor"></path><path d="M140 240.199H144V244.199H140V240.199Z" fill="currentColor"></path><path d="M160 240.199H164V244.199H160V240.199Z" fill="currentColor"></path><path d="M180 240.199H184V244.199H180V240.199Z" fill="currentColor"></path><path d="M200 240.199H204V244.199H200V240.199Z" fill="currentColor"></path><path d="M220 240.199H224V244.199H220V240.199Z" fill="currentColor"></path><path d="M240 240.199H244V244.199H240V240.199Z" fill="currentColor"></path><path d="M260 240.199H264V244.199H260V240.199Z" fill="currentColor"></path><path d="M280 240.199H284V244.199H280V240.199Z" fill="currentColor"></path><path d="M300 240.199H304V244.199H300V240.199Z" fill="currentColor"></path><path d="M320 240.199H324V244.199H320V240.199Z" fill="currentColor"></path><path d="M340 240.199H344V244.199H340V240.199Z" fill="currentColor"></path><path d="M360 240.199H364V244.199H360V240.199Z" fill="currentColor"></path><path d="M380 240.199H384V244.199H380V240.199Z" fill="currentColor"></path><path d="M400 240.199H404V244.199H400V240.199Z" fill="currentColor"></path><path d="M0 260.199H4V264.199H0V260.199Z" fill="currentColor"></path><path d="M20 260.199H24V264.199H20V260.199Z" fill="currentColor"></path><path d="M40 260.199H44V264.199H40V260.199Z" fill="currentColor"></path><path d="M60 260.199H64V264.199H60V260.199Z" fill="currentColor"></path><path d="M80 260.199H84V264.199H80V260.199Z" fill="currentColor"></path><path d="M100 260.199H104V264.199H100V260.199Z" fill="currentColor"></path><path d="M120 260.199H124V264.199H120V260.199Z" fill="currentColor"></path><path d="M140 260.199H144V264.199H140V260.199Z" fill="currentColor"></path><path d="M160 260.199H164V264.199H160V260.199Z" fill="currentColor"></path><path d="M180 260.199H184V264.199H180V260.199Z" fill="currentColor"></path><path d="M200 260.199H204V264.199H200V260.199Z" fill="currentColor"></path><path d="M220 260.199H224V264.199H220V260.199Z" fill="currentColor"></path><path d="M240 260.199H244V264.199H240V260.199Z" fill="currentColor"></path><path d="M260 260.199H264V264.199H260V260.199Z" fill="currentColor"></path><path d="M280 260.199H284V264.199H280V260.199Z" fill="currentColor"></path><path d="M300 260.199H304V264.199H300V260.199Z" fill="currentColor"></path><path d="M320 260.199H324V264.199H320V260.199Z" fill="currentColor"></path><path d="M340 260.199H344V264.199H340V260.199Z" fill="currentColor"></path><path d="M360 260.199H364V264.199H360V260.199Z" fill="currentColor"></path><path d="M380 260.199H384V264.199H380V260.199Z" fill="currentColor"></path><path d="M400 260.199H404V264.199H400V260.199Z" fill="currentColor"></path><path d="M0 280.199H4V284.199H0V280.199Z" fill="currentColor"></path><path d="M20 280.199H24V284.199H20V280.199Z" fill="currentColor"></path><path d="M40 280.199H44V284.199H40V280.199Z" fill="currentColor"></path><path d="M60 280.199H64V284.199H60V280.199Z" fill="currentColor"></path><path d="M80 280.199H84V284.199H80V280.199Z" fill="currentColor"></path><path d="M100 280.199H104V284.199H100V280.199Z" fill="currentColor"></path><path d="M120 280.199H124V284.199H120V280.199Z" fill="currentColor"></path><path d="M140 280.199H144V284.199H140V280.199Z" fill="currentColor"></path><path d="M160 280.199H164V284.199H160V280.199Z" fill="currentColor"></path><path d="M180 280.199H184V284.199H180V280.199Z" fill="currentColor"></path><path d="M200 280.199H204V284.199H200V280.199Z" fill="currentColor"></path><path d="M220 280.199H224V284.199H220V280.199Z" fill="currentColor"></path><path d="M240 280.199H244V284.199H240V280.199Z" fill="currentColor"></path><path d="M260 280.199H264V284.199H260V280.199Z" fill="currentColor"></path><path d="M280 280.199H284V284.199H280V280.199Z" fill="currentColor"></path><path d="M300 280.199H304V284.199H300V280.199Z" fill="currentColor"></path><path d="M320 280.199H324V284.199H320V280.199Z" fill="currentColor"></path><path d="M340 280.199H344V284.199H340V280.199Z" fill="currentColor"></path><path d="M360 280.199H364V284.199H360V280.199Z" fill="currentColor"></path><path d="M380 280.199H384V284.199H380V280.199Z" fill="currentColor"></path><path d="M400 280.199H404V284.199H400V280.199Z" fill="currentColor"></path><path d="M0 300.199H4V304.199H0V300.199Z" fill="currentColor"></path><path d="M20 300.199H24V304.199H20V300.199Z" fill="currentColor"></path><path d="M40 300.199H44V304.199H40V300.199Z" fill="currentColor"></path><path d="M60 300.199H64V304.199H60V300.199Z" fill="currentColor"></path><path d="M80 300.199H84V304.199H80V300.199Z" fill="currentColor"></path><path d="M100 300.199H104V304.199H100V300.199Z" fill="currentColor"></path><path d="M120 300.199H124V304.199H120V300.199Z" fill="currentColor"></path><path d="M140 300.199H144V304.199H140V300.199Z" fill="currentColor"></path><path d="M160 300.199H164V304.199H160V300.199Z" fill="currentColor"></path><path d="M180 300.199H184V304.199H180V300.199Z" fill="currentColor"></path><path d="M200 300.199H204V304.199H200V300.199Z" fill="currentColor"></path><path d="M220 300.199H224V304.199H220V300.199Z" fill="currentColor"></path><path d="M240 300.199H244V304.199H240V300.199Z" fill="currentColor"></path><path d="M260 300.199H264V304.199H260V300.199Z" fill="currentColor"></path><path d="M280 300.199H284V304.199H280V300.199Z" fill="currentColor"></path><path d="M300 300.199H304V304.199H300V300.199Z" fill="currentColor"></path><path d="M320 300.199H324V304.199H320V300.199Z" fill="currentColor"></path><path d="M340 300.199H344V304.199H340V300.199Z" fill="currentColor"></path><path d="M360 300.199H364V304.199H360V300.199Z" fill="currentColor"></path><path d="M380 300.199H384V304.199H380V300.199Z" fill="currentColor"></path><path d="M400 300.199H404V304.199H400V300.199Z" fill="currentColor"></path><path d="M0 320.199H4V324.199H0V320.199Z" fill="currentColor"></path><path d="M20 320.199H24V324.199H20V320.199Z" fill="currentColor"></path><path d="M40 320.199H44V324.199H40V320.199Z" fill="currentColor"></path><path d="M60 320.199H64V324.199H60V320.199Z" fill="currentColor"></path><path d="M80 320.199H84V324.199H80V320.199Z" fill="currentColor"></path><path d="M100 320.199H104V324.199H100V320.199Z" fill="currentColor"></path><path d="M120 320.199H124V324.199H120V320.199Z" fill="currentColor"></path><path d="M140 320.199H144V324.199H140V320.199Z" fill="currentColor"></path><path d="M160 320.199H164V324.199H160V320.199Z" fill="currentColor"></path><path d="M180 320.199H184V324.199H180V320.199Z" fill="currentColor"></path><path d="M200 320.199H204V324.199H200V320.199Z" fill="currentColor"></path><path d="M220 320.199H224V324.199H220V320.199Z" fill="currentColor"></path><path d="M240 320.199H244V324.199H240V320.199Z" fill="currentColor"></path><path d="M260 320.199H264V324.199H260V320.199Z" fill="currentColor"></path><path d="M280 320.199H284V324.199H280V320.199Z" fill="currentColor"></path><path d="M300 320.199H304V324.199H300V320.199Z" fill="currentColor"></path><path d="M320 320.199H324V324.199H320V320.199Z" fill="currentColor"></path><path d="M340 320.199H344V324.199H340V320.199Z" fill="currentColor"></path><path d="M360 320.199H364V324.199H360V320.199Z" fill="currentColor"></path><path d="M380 320.199H384V324.199H380V320.199Z" fill="currentColor"></path><path d="M400 320.199H404V324.199H400V320.199Z" fill="currentColor"></path><path d="M0 340.199H4V344.199H0V340.199Z" fill="currentColor"></path><path d="M20 340.199H24V344.199H20V340.199Z" fill="currentColor"></path><path d="M40 340.199H44V344.199H40V340.199Z" fill="currentColor"></path><path d="M60 340.199H64V344.199H60V340.199Z" fill="currentColor"></path><path d="M80 340.199H84V344.199H80V340.199Z" fill="currentColor"></path><path d="M100 340.199H104V344.199H100V340.199Z" fill="currentColor"></path><path d="M120 340.199H124V344.199H120V340.199Z" fill="currentColor"></path><path d="M140 340.199H144V344.199H140V340.199Z" fill="currentColor"></path><path d="M160 340.199H164V344.199H160V340.199Z" fill="currentColor"></path><path d="M180 340.199H184V344.199H180V340.199Z" fill="currentColor"></path><path d="M200 340.199H204V344.199H200V340.199Z" fill="currentColor"></path><path d="M220 340.199H224V344.199H220V340.199Z" fill="currentColor"></path><path d="M240 340.199H244V344.199H240V340.199Z" fill="currentColor"></path><path d="M260 340.199H264V344.199H260V340.199Z" fill="currentColor"></path><path d="M280 340.199H284V344.199H280V340.199Z" fill="currentColor"></path><path d="M300 340.199H304V344.199H300V340.199Z" fill="currentColor"></path><path d="M320 340.199H324V344.199H320V340.199Z" fill="currentColor"></path><path d="M340 340.199H344V344.199H340V340.199Z" fill="currentColor"></path><path d="M360 340.199H364V344.199H360V340.199Z" fill="currentColor"></path><path d="M380 340.199H384V344.199H380V340.199Z" fill="currentColor"></path><path d="M400 340.199H404V344.199H400V340.199Z" fill="currentColor"></path><path d="M0 360.199H4V364.199H0V360.199Z" fill="currentColor"></path><path d="M20 360.199H24V364.199H20V360.199Z" fill="currentColor"></path><path d="M40 360.199H44V364.199H40V360.199Z" fill="currentColor"></path><path d="M60 360.199H64V364.199H60V360.199Z" fill="currentColor"></path><path d="M80 360.199H84V364.199H80V360.199Z" fill="currentColor"></path><path d="M100 360.199H104V364.199H100V360.199Z" fill="currentColor"></path><path d="M120 360.199H124V364.199H120V360.199Z" fill="currentColor"></path><path d="M140 360.199H144V364.199H140V360.199Z" fill="currentColor"></path><path d="M160 360.199H164V364.199H160V360.199Z" fill="currentColor"></path><path d="M180 360.199H184V364.199H180V360.199Z" fill="currentColor"></path><path d="M200 360.199H204V364.199H200V360.199Z" fill="currentColor"></path><path d="M220 360.199H224V364.199H220V360.199Z" fill="currentColor"></path><path d="M240 360.199H244V364.199H240V360.199Z" fill="currentColor"></path><path d="M260 360.199H264V364.199H260V360.199Z" fill="currentColor"></path><path d="M280 360.199H284V364.199H280V360.199Z" fill="currentColor"></path><path d="M300 360.199H304V364.199H300V360.199Z" fill="currentColor"></path><path d="M320 360.199H324V364.199H320V360.199Z" fill="currentColor"></path><path d="M340 360.199H344V364.199H340V360.199Z" fill="currentColor"></path><path d="M360 360.199H364V364.199H360V360.199Z" fill="currentColor"></path><path d="M380 360.199H384V364.199H380V360.199Z" fill="currentColor"></path><path d="M400 360.199H404V364.199H400V360.199Z" fill="currentColor"></path><path d="M0 380.199H4V384.199H0V380.199Z" fill="currentColor"></path><path d="M20 380.199H24V384.199H20V380.199Z" fill="currentColor"></path><path d="M40 380.199H44V384.199H40V380.199Z" fill="currentColor"></path><path d="M60 380.199H64V384.199H60V380.199Z" fill="currentColor"></path><path d="M80 380.199H84V384.199H80V380.199Z" fill="currentColor"></path><path d="M100 380.199H104V384.199H100V380.199Z" fill="currentColor"></path><path d="M120 380.199H124V384.199H120V380.199Z" fill="currentColor"></path><path d="M140 380.199H144V384.199H140V380.199Z" fill="currentColor"></path><path d="M160 380.199H164V384.199H160V380.199Z" fill="currentColor"></path><path d="M180 380.199H184V384.199H180V380.199Z" fill="currentColor"></path><path d="M200 380.199H204V384.199H200V380.199Z" fill="currentColor"></path><path d="M220 380.199H224V384.199H220V380.199Z" fill="currentColor"></path><path d="M240 380.199H244V384.199H240V380.199Z" fill="currentColor"></path><path d="M260 380.199H264V384.199H260V380.199Z" fill="currentColor"></path><path d="M280 380.199H284V384.199H280V380.199Z" fill="currentColor"></path><path d="M300 380.199H304V384.199H300V380.199Z" fill="currentColor"></path><path d="M320 380.199H324V384.199H320V380.199Z" fill="currentColor"></path><path d="M340 380.199H344V384.199H340V380.199Z" fill="currentColor"></path><path d="M360 380.199H364V384.199H360V380.199Z" fill="currentColor"></path><path d="M380 380.199H384V384.199H380V380.199Z" fill="currentColor"></path><path d="M400 380.199H404V384.199H400V380.199Z" fill="currentColor"></path><path d="M0 400.199H4V404.199H0V400.199Z" fill="currentColor"></path><path d="M20 400.199H24V404.199H20V400.199Z" fill="currentColor"></path><path d="M40 400.199H44V404.199H40V400.199Z" fill="currentColor"></path><path d="M60 400.199H64V404.199H60V400.199Z" fill="currentColor"></path><path d="M80 400.199H84V404.199H80V400.199Z" fill="currentColor"></path><path d="M100 400.199H104V404.199H100V400.199Z" fill="currentColor"></path><path d="M120 400.199H124V404.199H120V400.199Z" fill="currentColor"></path><path d="M140 400.199H144V404.199H140V400.199Z" fill="currentColor"></path><path d="M160 400.199H164V404.199H160V400.199Z" fill="currentColor"></path><path d="M180 400.199H184V404.199H180V400.199Z" fill="currentColor"></path><path d="M200 400.199H204V404.199H200V400.199Z" fill="currentColor"></path><path d="M220 400.199H224V404.199H220V400.199Z" fill="currentColor"></path>
                                    <path d="M240 400.199H244V404.199H240V400.199Z" fill="currentColor"></path>
                                    <path d="M260 400.199H264V404.199H260V400.199Z" fill="currentColor"></path>
                                    <path d="M280 400.199H284V404.199H280V400.199Z" fill="currentColor"></path>
                                    <path d="M300 400.199H304V404.199H300V400.199Z" fill="currentColor"></path>
                                    <path d="M320 400.199H324V404.199H320V400.199Z" fill="currentColor"></path>
                                    <path d="M340 400.199H344V404.199H340V400.199Z" fill="currentColor"></path>
                                    <path d="M360 400.199H364V404.199H360V400.199Z" fill="currentColor"></path>
                                    <path d="M380 400.199H384V404.199H380V400.199Z" fill="currentColor"></path>
                                    <path d="M400 400.199H404V404.199H400V400.199Z" fill="currentColor"></path>
                                    </svg>
