                            <svg xmlns="http://www.w3.org/2000/svg" width="50" height="50" viewBox="0 0 41 40" fill="none" class="i i--earn-certificate-icon rounded-md" role="presentation" aria-hidden="true">
                                <g clip-path="url(#clip0_2038_17528)">
                                    <path d="M40.5 0H0.5V40H40.5V0Z" fill="#7034D5"></path>
                                    <path d="M20.4992 23.7001C24.2548 23.7001 27.2992 20.6556 27.2992 16.9001C27.2992 13.1446 24.2548 10.1001 20.4992 10.1001C16.7437 10.1001 13.6992 13.1446 13.6992 16.9001C13.6992 20.6556 16.7437 23.7001 20.4992 23.7001Z" stroke="white" stroke-width="1.2055" stroke-miterlimit="10"></path>
                                    <path d="M30.6996 16.9001C30.6996 17.8001 29.6996 18.5001 29.4996 19.3001C29.2996 20.1001 29.7996 21.3001 29.2996 22.0001C28.8996 22.7001 27.6996 22.9001 26.9996 23.5001C26.3996 24.1001 26.1996 25.3001 25.4996 25.8001C24.7996 26.2001 23.5996 25.7001 22.7996 26.0001C21.9996 26.2001 21.2996 27.2001 20.3996 27.2001C19.4996 27.2001 18.7996 26.2001 17.9996 26.0001C17.1996 25.8001 15.9996 26.3001 15.2996 25.8001C14.5996 25.4001 14.3996 24.2001 13.7996 23.5001C13.1996 22.9001 11.9996 22.7001 11.4996 22.0001C11.0996 21.3001 11.5996 20.1001 11.2996 19.3001C11.0996 18.5001 10.0996 17.8001 10.0996 16.9001C10.0996 16.0001 11.0996 15.3001 11.2996 14.5001C11.4996 13.7001 10.9996 12.5001 11.4996 11.8001C11.8996 11.1001 13.0996 10.9001 13.7996 10.3001C14.3996 9.7001 14.5996 8.5001 15.2996 8.0001C15.9996 7.6001 17.1996 8.1001 17.9996 7.8001C18.7996 7.6001 19.4996 6.6001 20.3996 6.6001C21.2996 6.6001 21.9996 7.6001 22.7996 7.8001C23.5996 8.0001 24.7996 7.5001 25.4996 8.0001C26.1996 8.4001 26.3996 9.6001 26.9996 10.3001C27.5996 10.9001 28.7996 11.1001 29.2996 11.8001C29.6996 12.5001 29.1996 13.7001 29.4996 14.5001C29.6996 15.3001 30.6996 16.1001 30.6996 16.9001Z" stroke="white" stroke-width="1.2055" stroke-miterlimit="10"></path>
                                    <path d="M26.3996 24.8L30.6996 32.3L26.8996 31.9L25.2996 35.4001L20.5996 27.2001" stroke="white" stroke-width="1.2055" stroke-miterlimit="10" stroke-linecap="round" stroke-linejoin="round"></path>
                                    <path d="M14.5998 24.8L10.2998 32.3L14.0998 31.9L15.6998 35.4001L20.3998 27.2001" stroke="white" stroke-width="1.2055" stroke-miterlimit="10" stroke-linecap="round" stroke-linejoin="round"></path>
                                    <path d="M16.7998 17.1001L19.1998 19.5001L24.1998 14.4001" stroke="white" stroke-width="1.2055" stroke-miterlimit="10" stroke-linecap="round" stroke-linejoin="round"></path>
                                </g>
                                <defs>
                                    <clipPath id="clip0_2038_17528">
                                        <rect x="0.5" width="40" height="40" rx="6" fill="white"></rect>
                                    </clipPath>
                                </defs>
                            </svg>
