                        <svg xmlns="http://www.w3.org/2000/svg" width="50" height="50" viewBox="0 0 40 40" fill="none" class="i i--time-speed-icon rounded-md" role="presentation" aria-hidden="true">
                        <path d="M40 0H0V40H40V0Z" fill="#7034D5"></path>
                        <path d="M14.4998 19.4H8.9998C8.5998 19.4 8.2998 19.1 8.2998 18.7C8.2998 18.3 8.5998 18 8.9998 18H14.4998C14.8998 18 15.1998 18.3 15.1998 18.7C15.1998 19 14.8998 19.4 14.4998 19.4Z" fill="white"></path>
                        <path d="M14.7 22.8001H2.7C2.3 22.8001 2 22.5001 2 22.1001C2 21.7001 2.3 21.4001 2.7 21.4001H14.7C15.1 21.4001 15.4 21.7001 15.4 22.1001C15.4 22.5001 15.1 22.8001 14.7 22.8001Z" fill="white"></path>
                        <path d="M22.5005 33.4001C18.9005 33.4001 15.6005 31.7 13.5005 28.9C13.3005 28.6 13.3005 28.2 13.6005 27.9C13.9005 27.7 14.3005 27.7001 14.6005 28C16.5005 30.5 19.4005 32 22.5005 32C28.0005 32 32.4005 27.6 32.4005 22.1C32.4005 16.6 28.0005 12.2 22.5005 12.2C19.3005 12.2 16.5005 13.6 14.6005 16.2C14.4005 16.5 13.9005 16.6 13.6005 16.3C13.3005 16.1 13.2005 15.6 13.5005 15.3C15.7005 12.4 19.0005 10.8 22.6005 10.8C28.8005 10.8 33.9005 15.9 33.9005 22.1C33.8005 28.3 28.8005 33.4001 22.5005 33.4001Z" fill="white"></path>
                        <path d="M22.4998 12.1001C22.0998 12.1001 21.7998 11.8001 21.7998 11.4001V7.8001C21.7998 7.4001 22.0998 7.1001 22.4998 7.1001C22.8998 7.1001 23.1998 7.4001 23.1998 7.8001V11.5001C23.1998 11.8001 22.8998 12.1001 22.4998 12.1001Z" fill="white"></path>
                        <path d="M24.4004 8.5001H20.6004C20.2004 8.5001 19.9004 8.2001 19.9004 7.8001C19.9004 7.4001 20.2004 7.1001 20.6004 7.1001H24.4004C24.8004 7.1001 25.1004 7.4001 25.1004 7.8001C25.1004 8.2001 24.8004 8.5001 24.4004 8.5001Z" fill="white"></path>
                        <path d="M22.5005 24.1001C22.3005 24.1001 22.1005 24.0001 22.0005 23.9001L19.5005 21.1001C19.2005 20.8001 19.3005 20.4001 19.6005 20.1001C19.9005 19.8001 20.3005 19.9001 20.6005 20.2001L23.0005 23.0001C23.3005 23.3001 23.2005 23.7001 22.9005 24.0001C22.9005 24.1001 22.7005 24.1001 22.5005 24.1001Z" fill="white"></path>
                        <path d="M22.5005 24.1002C22.3005 24.1002 22.1005 24.0002 22.0005 23.9002C21.7005 23.6002 21.8005 23.2002 22.1005 22.9002L27.0005 18.7002C27.3005 18.4002 27.7005 18.5002 28.0005 18.8002C28.3005 19.1002 28.2005 19.5002 27.9005 19.8002L23.0005 24.0002C22.8005 24.1002 22.7005 24.1002 22.5005 24.1002Z" fill="white"></path>
                        <path d="M14.4998 26.2001H6.4998C6.0998 26.2001 5.7998 25.9 5.7998 25.5C5.7998 25.1 6.0998 24.8 6.4998 24.8H14.5998C14.9998 24.8 15.2998 25.1 15.2998 25.5C15.1998 25.9 14.8998 26.2001 14.4998 26.2001Z" fill="white"></path>
                        </svg>
