<svg width="100" height="100" viewBox="0 0 100 100" fill="none" xmlns="http://www.w3.org/2000/svg">
<circle cx="50" cy="50" r="50" fill="#7C3AED"/>
<path d="M78.625 53.4232C69.9397 56.9389 60.446 58.875 50.5 58.875C40.5541 58.875 31.0603 56.9389 22.375 53.4232M63 30.75V24.5C63 21.0482 60.2018 18.25 56.75 18.25H44.25C40.7982 18.25 38 21.0482 38 24.5V30.75M50.5 49.5H50.5313M28.625 74.5H72.375C75.8268 74.5 78.625 71.7018 78.625 68.25V37C78.625 33.5482 75.8268 30.75 72.375 30.75H28.625C25.1732 30.75 22.375 33.5482 22.375 37V68.25C22.375 71.7018 25.1732 74.5 28.625 74.5Z" stroke="white" stroke-width="4" stroke-linecap="round" stroke-linejoin="round"/>
</svg>
