<svg viewBox="0 0 24 24" xmlns="http://www.w3.org/2000/svg"><circle cx="12.02" cy="11.99" fill="#1da1f2" r="12.02"/><path d="m19 6.18a5 5 0 0 1 -1.89.68 3 3 0 0 0 -2.2-1 3.05 3.05 0 0 0 -3 3.08 3.11 3.11 0 0 0 .07.69 8.38 8.38 0 0 1 -6.26-3.2 3.13 3.13 0 0 0 .92 4.08 1.9 1.9 0 0 1 -1.32-.35 3 3 0 0 0 2.34 3 2.35 2.35 0 0 1 -1.27.09 2.89 2.89 0 0 0 2.61 2.17 5.36 5.36 0 0 1 -4.34 1.28 9 9 0 0 0 4.75 1.37 8.51 8.51 0 0 0 8.5-9v-.07a5.42 5.42 0 0 0 1.47-1.58 5.28 5.28 0 0 1 -1.68.48 3.26 3.26 0 0 0 1.3-1.72" fill="#fff" fill-rule="evenodd"/></svg>