<?xml version="1.0" encoding="UTF-8"?>
<svg width="32px" height="32px" viewBox="0 0 32 32" version="1.1" xmlns="http://www.w3.org/2000/svg" xmlns:xlink="http://www.w3.org/1999/xlink">
    <title>Group 23</title>
    <g id="Symbols" stroke="none" stroke-width="1" fill="none" fill-rule="evenodd">
        <g id="Group-23" fill-rule="nonzero">
            <path d="M15.889,-8.8817842e-13 C7.128,-8.8817842e-13 -8.8817842e-13,7.128 -8.8817842e-13,15.889 C-8.8817842e-13,24.649 7.128,31.777 15.889,31.777 C24.649,31.777 31.777,24.649 31.777,15.889 C31.777,7.128 24.65,-8.8817842e-13 15.89,-8.8817842e-13 L15.889,-8.8817842e-13 Z" id="Path-Copy" fill="#ED1F24"></path>
            <g id="iconfinder_1_Youtube_colored_svg_5296521" transform="translate(6.000000, 9.000000)" fill="#FFFFFF">
                <path d="M10.3501376,0.00118204223 C11.6903446,0.0084944916 16.4765775,0.0596816372 17.813693,0.417991656 C18.6743084,0.647963896 19.3519405,1.32561439 19.5819589,2.18620355 C19.9721306,3.64198343 19.998142,6.57396085 19.9998761,6.95842104 L19.9998761,7.04227169 C19.998142,7.42673123 19.9721306,10.3586989 19.5819589,11.814333 C19.3519405,12.6749221 18.6743084,13.3527289 17.813693,13.5827011 C16.4394354,13.9508265 11.4217815,13.994651 10.2465784,13.9998682 L9.75167131,13.9998682 C8.57646776,13.994651 3.55880976,13.9508265 2.18451776,13.5827011 C1.32409763,13.3527289 0.646270174,12.6749221 0.416251843,11.814333 C0.0541188179,10.4626728 0.00583441453,7.83805144 -0.000603505925,7.16218193 L-0.000603505925,6.83851047 C0.00583441453,6.16263855 0.0541188179,3.53799915 0.416251843,2.18620355 C0.646270174,1.32561439 1.32409763,0.647963896 2.18451776,0.417991656 C3.52166673,0.0596816372 8.30790434,0.0084944916 9.64811204,0.00118204223 Z M8.1808763,4.3751539 L8.1808763,9.62538262 L12.7266931,7.00026826 L8.1808763,4.3751539 Z" id="Combined-Shape"></path>
            </g>
        </g>
    </g>
</svg>