<svg viewBox="0 0 24 24" xmlns="http://www.w3.org/2000/svg"><circle cx="12.02" cy="11.99" fill="#0a66c2" r="12.02"/><g fill="#fff"><path d="m18.27 13.36v4.64h-2.69v-4.33c0-1.09-.39-1.83-1.36-1.83a1.48 1.48 0 0 0 -1.38 1 1.85 1.85 0 0 0 -.09.66v4.5h-2.69s0-7.34 0-8.1h2.69v1.15a2.68 2.68 0 0 1 2.43-1.33c1.82 0 3.09 1.15 3.09 3.64z" fill-rule="evenodd"/><path d="m7.25 6a1.41 1.41 0 0 0 -1.52 1.4 1.39 1.39 0 0 0 1.48 1.4 1.4 1.4 0 1 0 0-2.8z" fill-rule="evenodd"/><path d="m5.89 9.9h2.69v8.09h-2.69z"/></g></svg>