<svg width="100" height="100" viewBox="0 0 100 100" fill="none" xmlns="http://www.w3.org/2000/svg">
<circle cx="50" cy="50" r="50" fill="#7C3AED"/>
<path d="M29.0032 67.6367C35.3521 64.0481 42.6869 62 50.5 62C58.3131 62 65.6479 64.0481 71.9968 67.6367M59.875 43.25C59.875 48.4277 55.6777 52.625 50.5 52.625C45.3223 52.625 41.125 48.4277 41.125 43.25C41.125 38.0723 45.3223 33.875 50.5 33.875C55.6777 33.875 59.875 38.0723 59.875 43.25ZM78.625 49.5C78.625 65.033 66.033 77.625 50.5 77.625C34.967 77.625 22.375 65.033 22.375 49.5C22.375 33.967 34.967 21.375 50.5 21.375C66.033 21.375 78.625 33.967 78.625 49.5Z" stroke="white" stroke-width="4" stroke-linecap="round" stroke-linejoin="round"/>
</svg>
