<svg xmlns="http://www.w3.org/2000/svg" xmlns:xlink="http://www.w3.org/1999/xlink" height="68" width="260"><defs><path id="a" d="M0 .554h17.677v59.017H0z"/></defs><g fill="none" fill-rule="evenodd"><g transform="translate(0 .398)"><mask fill="#fff" id="b"><use height="100%" width="100%" xlink:href="#a"/></mask><path mask="url(#b)" d="M3.368.554h14.309v.46c-3.592.661-3.821 2.241-3.821 2.241-.26.949-.172 2.989-.172 2.989v36.432C13.08 53.882.38 59.57.38 59.57c-.69 0-.23-.575-.23-.575 7.815-7.872 7.586-13.074 7.586-13.074V4.346c0-2.758-2.932-2.758-2.932-2.758C3.541 1.358 3.368.554 3.368.554" fill="#010101"/></g><path d="M34.687 45.861c-4.793 0-8.677-4.727-8.677-10.559 0-5.831 3.884-10.559 8.677-10.559 4.792 0 8.677 4.728 8.677 10.56 0 5.83-3.885 10.558-8.677 10.558m0-26.003c-7.776 0-14.08 6.882-14.08 15.372s6.304 15.372 14.08 15.372c7.775 0 14.079-6.882 14.079-15.372s-6.304-15.372-14.08-15.372" fill="#010101"/><path d="M64.96 46.32c-4.715 0-8.538-4.869-8.538-10.874 0-6.007 3.823-10.876 8.538-10.876 4.714 0 8.537 4.869 8.537 10.876 0 6.005-3.823 10.874-8.537 10.874m.17-26.06c-3.315 0-6.35 1.328-8.708 3.533V8.451h-5.645v36.72h-3.448v4.569h9.093v-2.67c2.358 2.204 5.393 3.532 8.707 3.532 7.498 0 13.576-6.792 13.576-15.17 0-8.379-6.078-15.171-13.576-15.171" fill="#010101"/><path d="M94.526 46.32c-4.714 0-8.537-4.869-8.537-10.874 0-6.007 3.823-10.876 8.537-10.876s8.537 4.869 8.537 10.876c0 6.005-3.823 10.874-8.537 10.874m.17-26.06c-3.315 0-6.35 1.328-8.707 3.533V8.451h-5.646v36.72h-3.448v4.569h9.094v-2.67c2.357 2.204 5.392 3.532 8.706 3.532 7.498 0 13.577-6.792 13.577-15.17 0-8.379-6.079-15.171-13.577-15.171M114.666 32.386h-3.148v4.597h2.922a12.654 12.654 0 0 1-.121-1.681c0-1.012.125-1.989.347-2.916" fill="#010101"/><path d="M137.278 36.983c.06-.575.095-1.16.095-1.752 0-.973-.088-1.923-.248-2.845-1.239-7.13-7.04-12.528-14.016-12.528-7.877 0-14.263 6.883-14.263 15.373 0 8.49 6.386 15.371 14.263 15.371 3.826 0 8.03-1.265 10.59-3.908l-3.965-3.045c-1.472 1.346-4.629 2.212-6.625 2.212-4.377 0-7.997-3.848-8.668-8.878h-2.923v-4.597h3.148c1.055-4.412 4.432-7.643 8.443-7.643 4.013 0 7.39 3.231 8.444 7.643h-16.887a12.52 12.52 0 0 0-.347 2.916c0 .573.048 1.132.122 1.681h22.837z" fill="#010101"/><path d="M135.079 20.72v4.598h3.333v24.48h9.711V45.2H143.7V31.466c0-5.516 5.171-6.32 5.171-6.32 2.873 0 4.252.573 4.252.573V20.26c-6.033-1.263-9.021 2.184-9.021 2.184v-1.752l-9.022.028zM155.421 20.663v4.77h3.39v24.595h8.908v-4.827h-3.505V31.754c0-7.01 6.838-6.609 6.838-6.609 5.976 0 5.287 5.402 5.287 5.402v19.481h8.85v-4.77h-3.391V31.352c0-6.552 6.666-6.264 6.666-6.264 5.344 0 5.172 5 5.172 5v19.71h8.39v-4.597h-2.644V30.72c0-9.94-9.424-10.737-9.424-10.737-8.045-.468-9.654 4.072-9.654 4.072-1.897-4.106-9.195-4.072-9.195-4.072-4.482 0-6.838 2.865-6.838 2.865v-2.069l-8.85-.115zM219.51 43.405s-2.027 3.103-7.242 2.284c0 0-4.224-.646-4.224-4.784 0 0-.215-4.784 5.862-4.784h7.887v.215s.346 3.664-2.284 7.069zm36.82 1.853V30.433c0-9.023-7.24-10.115-7.24-10.115-7.758-1.206-10.689 2.414-10.689 2.414v-2.126h-5.575v24.652h-5.459v-15.17c0-10.92-11.147-10.016-11.147-10.016-4.942-.156-9.999 2.832-9.999 2.832l2.125 4.195c5.804-3.62 10.172-2.097 10.172-2.097 4.482 1.465 3.275 6.465 3.275 6.465-9.538 0-13.561 1.034-13.561 1.034-6.608 2.701-5.976 8.103-5.976 8.103 0 8.792 8.159 9.769 8.159 9.769 8.333.804 11.206-3.103 11.206-3.103v2.758h16.78V32.214c0-8.448 7.988-7.01 7.988-7.01 4.368 0 4.483 4.712 4.483 4.712v20.112h8.562v-4.77h-3.104z" fill="#010101"/><path d="M17.074 11.267c.604-.259 1.407-.488 1.407-.488.777-.489.46-1.12.46-1.12-.517-2.357-.057-4.972-.057-4.972.402-2.011 3.189-1.896 3.189-1.896 2.988.431 3.247 3.477 3.247 3.477.029 1.35-.632 2.183-.632 2.183-1.207 2.212-.748 3.592-.748 3.592 2.788.575 3.277.69 3.277.69 0 2.671.488 7.096.488 7.126.143 4.396.46 6.406.46 6.406.574 2.76 2.327 4.713 2.327 4.713 1.523 1.523.862 2.873.862 2.873-1.84 1.034-3.39.69-3.39.69-1.179 0-1.064.373-1.064.373 0 3.908.144 4.885.144 4.885.23 2.24.316 3.534.316 3.534.402 2.04.948 2.987.948 2.987 0 2.903-.2 6.696-.2 6.696s0 .603-.058 1.15c-.058.545-.172 2.356-.172 2.356 0 .114.23.374.286.46a63.746 63.746 0 0 1 2.213 2.47c-.603.517-2.93.517-2.93.517-1.552.316-2.702 0-2.702 0-1.091-.632-1.264-2.154-1.264-2.154s-.028.287-.028-.145c0-2.068.114-3.188.114-3.188.373-4.34-.114-8.851-.114-8.851l-.26-1.925c-.344-3.017-1.838-5.89-1.838-5.89-.317-.315-.517.086-.517.086-2.27 4.31-3.505 7.96-3.505 7.96-2.443 6.58-2.012 11.98-2.012 11.98.201.921.287 1.15.287 1.15-.89.23-3.189-.977-3.189-1.062-2.299-1.524-1.236-6.954-1.236-6.954l.748-2.529-4.425-1.839 1.695-11.55 2.586-.23-.575-11.033c.03-1.15.66-1.581.66-1.581-.172-7.441.576-7.93.576-7.93.718-1.35 2.097-2.04 2.097-2.04 1.523-.603 2.529-.977 2.529-.977" fill="#1a4d98"/></g></svg>